<mxfile host="app.diagrams.net" agent="Mozilla/5.0 (X11; Linux x86_64; rv:129.0) Gecko/20100101 Firefox/129.0" version="24.7.10">
  <diagram name="Page-1" id="TYT6hzQmvrApYbUCvSjV">
    <mxGraphModel dx="1434" dy="790" grid="1" gridSize="10" guides="1" tooltips="1" connect="1" arrows="1" fold="1" page="1" pageScale="1" pageWidth="827" pageHeight="1169" math="0" shadow="0">
      <root>
        <mxCell id="0" />
        <mxCell id="1" parent="0" />
        <mxCell id="g90DVsx7on-vVFAK8eNL-1" value="&lt;b&gt;&lt;font style=&quot;font-size: 25px;&quot;&gt;Auth service&lt;/font&gt;&lt;/b&gt;" style="rounded=1;whiteSpace=wrap;html=1;" vertex="1" parent="1">
          <mxGeometry x="139" y="140" width="550" height="60" as="geometry" />
        </mxCell>
        <mxCell id="g90DVsx7on-vVFAK8eNL-2" value="&lt;b&gt;&lt;font style=&quot;font-size: 25px;&quot;&gt;Cient&lt;/font&gt;&lt;/b&gt;" style="rounded=1;whiteSpace=wrap;html=1;" vertex="1" parent="1">
          <mxGeometry x="74" y="390" width="300" height="60" as="geometry" />
        </mxCell>
        <mxCell id="g90DVsx7on-vVFAK8eNL-17" style="edgeStyle=orthogonalEdgeStyle;rounded=0;orthogonalLoop=1;jettySize=auto;html=1;entryX=0.75;entryY=1;entryDx=0;entryDy=0;" edge="1" parent="1" source="g90DVsx7on-vVFAK8eNL-4" target="g90DVsx7on-vVFAK8eNL-1">
          <mxGeometry relative="1" as="geometry" />
        </mxCell>
        <mxCell id="g90DVsx7on-vVFAK8eNL-4" value="&lt;b&gt;&lt;font style=&quot;font-size: 25px;&quot;&gt;Self hosted backend &lt;/font&gt;&lt;/b&gt;" style="rounded=1;whiteSpace=wrap;html=1;" vertex="1" parent="1">
          <mxGeometry x="454" y="390" width="300" height="60" as="geometry" />
        </mxCell>
        <mxCell id="g90DVsx7on-vVFAK8eNL-6" value="Register request" style="text;html=1;align=center;verticalAlign=middle;resizable=0;points=[];autosize=1;strokeColor=none;fillColor=none;" vertex="1" parent="1">
          <mxGeometry x="40" y="270" width="110" height="30" as="geometry" />
        </mxCell>
        <mxCell id="g90DVsx7on-vVFAK8eNL-7" style="edgeStyle=orthogonalEdgeStyle;rounded=0;orthogonalLoop=1;jettySize=auto;html=1;entryX=0.015;entryY=1.05;entryDx=0;entryDy=0;entryPerimeter=0;" edge="1" parent="1" source="g90DVsx7on-vVFAK8eNL-2" target="g90DVsx7on-vVFAK8eNL-1">
          <mxGeometry relative="1" as="geometry">
            <Array as="points">
              <mxPoint x="90" y="295" />
              <mxPoint x="147" y="295" />
            </Array>
          </mxGeometry>
        </mxCell>
        <mxCell id="g90DVsx7on-vVFAK8eNL-9" style="edgeStyle=orthogonalEdgeStyle;rounded=0;orthogonalLoop=1;jettySize=auto;html=1;entryX=0.32;entryY=-0.05;entryDx=0;entryDy=0;entryPerimeter=0;" edge="1" parent="1" source="g90DVsx7on-vVFAK8eNL-1" target="g90DVsx7on-vVFAK8eNL-2">
          <mxGeometry relative="1" as="geometry">
            <Array as="points">
              <mxPoint x="240" y="295" />
              <mxPoint x="170" y="295" />
            </Array>
          </mxGeometry>
        </mxCell>
        <mxCell id="g90DVsx7on-vVFAK8eNL-10" value="Auth login token" style="text;html=1;align=center;verticalAlign=middle;resizable=0;points=[];autosize=1;strokeColor=none;fillColor=none;" vertex="1" parent="1">
          <mxGeometry x="139" y="270" width="110" height="30" as="geometry" />
        </mxCell>
        <mxCell id="g90DVsx7on-vVFAK8eNL-12" style="edgeStyle=orthogonalEdgeStyle;rounded=0;orthogonalLoop=1;jettySize=auto;html=1;entryX=0.338;entryY=0.983;entryDx=0;entryDy=0;entryPerimeter=0;" edge="1" parent="1" source="g90DVsx7on-vVFAK8eNL-2" target="g90DVsx7on-vVFAK8eNL-1">
          <mxGeometry relative="1" as="geometry">
            <Array as="points">
              <mxPoint x="250" y="295" />
              <mxPoint x="325" y="295" />
            </Array>
          </mxGeometry>
        </mxCell>
        <mxCell id="g90DVsx7on-vVFAK8eNL-13" value="Remote login request" style="text;html=1;align=center;verticalAlign=middle;resizable=0;points=[];autosize=1;strokeColor=none;fillColor=none;" vertex="1" parent="1">
          <mxGeometry x="234" y="290" width="140" height="30" as="geometry" />
        </mxCell>
        <mxCell id="g90DVsx7on-vVFAK8eNL-15" style="edgeStyle=orthogonalEdgeStyle;rounded=0;orthogonalLoop=1;jettySize=auto;html=1;entryX=0.86;entryY=-0.05;entryDx=0;entryDy=0;entryPerimeter=0;" edge="1" parent="1" source="g90DVsx7on-vVFAK8eNL-1" target="g90DVsx7on-vVFAK8eNL-4">
          <mxGeometry relative="1" as="geometry">
            <Array as="points">
              <mxPoint x="712" y="170" />
            </Array>
          </mxGeometry>
        </mxCell>
        <mxCell id="g90DVsx7on-vVFAK8eNL-16" value="&lt;div&gt;Remote login request,&lt;/div&gt;&lt;div&gt;authorized by auth service&lt;/div&gt;" style="text;html=1;align=center;verticalAlign=middle;resizable=0;points=[];autosize=1;strokeColor=none;fillColor=none;" vertex="1" parent="1">
          <mxGeometry x="640" y="110" width="160" height="40" as="geometry" />
        </mxCell>
        <mxCell id="g90DVsx7on-vVFAK8eNL-18" value="&lt;div&gt;Token for client response&lt;/div&gt;" style="text;html=1;align=center;verticalAlign=middle;resizable=0;points=[];autosize=1;strokeColor=none;fillColor=none;" vertex="1" parent="1">
          <mxGeometry x="540" y="270" width="160" height="30" as="geometry" />
        </mxCell>
        <mxCell id="g90DVsx7on-vVFAK8eNL-20" style="edgeStyle=orthogonalEdgeStyle;rounded=0;orthogonalLoop=1;jettySize=auto;html=1;entryX=0.93;entryY=0.05;entryDx=0;entryDy=0;entryPerimeter=0;" edge="1" parent="1" source="g90DVsx7on-vVFAK8eNL-1" target="g90DVsx7on-vVFAK8eNL-2">
          <mxGeometry relative="1" as="geometry">
            <Array as="points">
              <mxPoint x="460" y="295" />
              <mxPoint x="353" y="295" />
            </Array>
          </mxGeometry>
        </mxCell>
        <mxCell id="g90DVsx7on-vVFAK8eNL-21" value="Token from backend" style="text;html=1;align=center;verticalAlign=middle;resizable=0;points=[];autosize=1;strokeColor=none;fillColor=none;" vertex="1" parent="1">
          <mxGeometry x="324" y="270" width="130" height="30" as="geometry" />
        </mxCell>
        <mxCell id="g90DVsx7on-vVFAK8eNL-22" style="edgeStyle=orthogonalEdgeStyle;rounded=0;orthogonalLoop=1;jettySize=auto;html=1;entryX=0.373;entryY=1.017;entryDx=0;entryDy=0;entryPerimeter=0;endArrow=classic;endFill=1;startArrow=classic;startFill=1;" edge="1" parent="1" source="g90DVsx7on-vVFAK8eNL-2" target="g90DVsx7on-vVFAK8eNL-4">
          <mxGeometry relative="1" as="geometry">
            <Array as="points">
              <mxPoint x="270" y="520" />
              <mxPoint x="566" y="520" />
            </Array>
          </mxGeometry>
        </mxCell>
        <mxCell id="g90DVsx7on-vVFAK8eNL-23" value="They can communicate using token produced by self hosted, received from auth service" style="text;html=1;align=center;verticalAlign=middle;resizable=0;points=[];autosize=1;strokeColor=none;fillColor=none;" vertex="1" parent="1">
          <mxGeometry x="169" y="520" width="490" height="30" as="geometry" />
        </mxCell>
        <mxCell id="g90DVsx7on-vVFAK8eNL-24" value="&lt;b&gt;&lt;font style=&quot;font-size: 22px;&quot;&gt;1&lt;/font&gt;&lt;/b&gt;" style="ellipse;whiteSpace=wrap;html=1;aspect=fixed;" vertex="1" parent="1">
          <mxGeometry x="74" y="230" width="40" height="40" as="geometry" />
        </mxCell>
        <mxCell id="g90DVsx7on-vVFAK8eNL-25" value="&lt;b&gt;&lt;font style=&quot;font-size: 22px;&quot;&gt;2&lt;/font&gt;&lt;/b&gt;" style="ellipse;whiteSpace=wrap;html=1;aspect=fixed;" vertex="1" parent="1">
          <mxGeometry x="169" y="230" width="40" height="40" as="geometry" />
        </mxCell>
        <mxCell id="g90DVsx7on-vVFAK8eNL-26" value="&lt;b&gt;&lt;font style=&quot;font-size: 22px;&quot;&gt;3&lt;/font&gt;&lt;/b&gt;" style="ellipse;whiteSpace=wrap;html=1;aspect=fixed;" vertex="1" parent="1">
          <mxGeometry x="260" y="250" width="40" height="40" as="geometry" />
        </mxCell>
        <mxCell id="g90DVsx7on-vVFAK8eNL-27" value="&lt;b&gt;&lt;font style=&quot;font-size: 22px;&quot;&gt;4&lt;/font&gt;&lt;/b&gt;" style="ellipse;whiteSpace=wrap;html=1;aspect=fixed;" vertex="1" parent="1">
          <mxGeometry x="720" y="180" width="40" height="40" as="geometry" />
        </mxCell>
        <mxCell id="g90DVsx7on-vVFAK8eNL-28" value="&lt;b&gt;&lt;font style=&quot;font-size: 22px;&quot;&gt;5&lt;/font&gt;&lt;/b&gt;" style="ellipse;whiteSpace=wrap;html=1;aspect=fixed;" vertex="1" parent="1">
          <mxGeometry x="560" y="220" width="40" height="40" as="geometry" />
        </mxCell>
        <mxCell id="g90DVsx7on-vVFAK8eNL-29" value="&lt;b&gt;&lt;font style=&quot;font-size: 22px;&quot;&gt;6&lt;/font&gt;&lt;/b&gt;" style="ellipse;whiteSpace=wrap;html=1;aspect=fixed;" vertex="1" parent="1">
          <mxGeometry x="360" y="330" width="40" height="40" as="geometry" />
        </mxCell>
        <mxCell id="g90DVsx7on-vVFAK8eNL-30" value="&lt;b&gt;&lt;font style=&quot;font-size: 22px;&quot;&gt;7&lt;/font&gt;&lt;/b&gt;" style="ellipse;whiteSpace=wrap;html=1;aspect=fixed;" vertex="1" parent="1">
          <mxGeometry x="394" y="470" width="40" height="40" as="geometry" />
        </mxCell>
      </root>
    </mxGraphModel>
  </diagram>
</mxfile>
